# xmcd CD database file
#
# Track frame offsets:
#	150
#	22762
#	45062
#
# Disc length: 901 seconds
#
# Revision: 4
# Processed by: cddbd v1.5.1PL0 Copyright (c) Steve Scherf et al.
# Submitted via: CDex 1.51
#
DISCID=0e038303
DTITLE=CAall - Silent Star
DYEAR=1995
DGENRE=J-POP
TTITLE0=Silent Star
TTITLE1=Light Blue Time
TTITLE2=Silent Star (karaoke)
EXTD=YEAR: 1995
EXTT0=
EXTT1=
EXTT2=
PLAYORDER=
